<?xml version='1.0' encoding='iso-8859-1'?>
<svg version="1.1" xmlns="http://www.w3.org/2000/svg" viewBox="0 0 227.957 227.957" xmlns:xlink="http://www.w3.org/1999/xlink" enable-background="new 0 0 227.957 227.957">
  <g>
    <path d="m215.775,91.574l-90.486-52.204c-8.701-5.22-19.141-5.22-26.102,0-6.96,5.22-12.181,13.921-12.181,22.621v5.481l-48.723-28.101c-3.48-1.74-6.96-3.48-12.181-3.48-13.921-0.001-26.102,12.18-26.102,26.101v104.407c0,13.921 12.181,26.102 26.102,26.102 3.48,0 8.701-1.723 12.181-3.48l50.463-29.112v6.49c0,10.441 3.48,17.401 12.181,22.621 3.48,1.74 8.701,3.48 12.181,3.48s8.701-1.74 12.181-3.48l90.486-52.204c6.96-5.22 12.181-12.181 12.181-22.621-2.84217e-14-10.439-3.48-17.4-12.181-22.621zm-186.192,81.786c-5.22,3.48-12.181,0-12.181-6.96v-104.407c0-5.22 5.22-8.701 8.701-8.701 1.74,0 3.48,0 3.48,1.74l90.486,52.204c3.48,1.74 3.48,5.22 3.48,6.96s0,5.22-3.48,6.96l-90.486,52.204zm177.492-52.203l-90.486,52.204c-3.48,1.74-6.96,0-8.701,0 0,0-3.48-1.74-3.48-6.96v-15.522l24.362-14.06c6.96-5.22 12.181-12.181 12.181-22.621 0-10.441-3.48-17.401-12.181-22.621l-24.362-14.06v-15.524c0-3.48 1.74-6.96 3.48-6.96s5.22-1.74 8.701,0l90.486,52.204c3.48,1.74 3.48,5.22 3.48,6.96s2.84217e-14,5.219-3.48,6.96z"/>
  </g>
</svg>
